<svg class="bob" font-family="arial" font-size="14" height="400" width="680" xmlns="http://www.w3.org/2000/svg">
<defs>
<marker id="triangle" markerHeight="8" markerWidth="8" orient="auto" refX="4" refY="2" viewBox="0 0 8 4">
<polygon fill="black" points="0,0 0,4 8,2 0,0"/>
</marker>
<marker id="clear_triangle" markerHeight="10" markerWidth="10" orient="auto" refX="1" refY="7" viewBox="0 0 20 14">
<polygon fill="none" points="2,2 2,12 18,7 2,2" stroke="black" stroke-width="2"/>
</marker>
<marker id="circle" markerHeight="5" markerWidth="5" orient="auto" refX="10" refY="10" viewBox="0 0 20 20">
<circle cx="10" cy="10" fill="black" r="8"/>
</marker>
<marker id="square" markerHeight="5" markerWidth="5" orient="auto" refX="10" refY="10" viewBox="0 0 20 20">
<rect fill="black" height="20" width="20" x="0" y="0"/>
</marker>
<marker id="open_circle" markerHeight="10" markerWidth="10" orient="auto" refX="10" refY="10" viewBox="0 0 20 20">
<circle cx="10" cy="10" fill="white" r="4" stroke="black" stroke-width="2"/>
</marker>
<marker id="big_open_circle" markerHeight="20" markerWidth="20" orient="auto" refX="20" refY="20" viewBox="0 0 40 40">
<circle cx="20" cy="20" fill="white" r="6" stroke="black" stroke-width="2"/>
</marker>
</defs>
<style type="text/css">

    line,path {
      stroke: black;
      stroke-width: 2;
      stroke-opacity: 1;
      fill-opacity: 1;
      stroke-linecap: round;
      stroke-linejoin: miter;
    }
    line.dashed {
        stroke-dasharray: 5;
    }
    circle.solid {
      fill:black;
      stroke: black;
      stroke-width: 2;
      stroke-opacity: 1;
      fill-opacity: 1;
      stroke-linecap: round;
      stroke-linejoin: miter;
    }
    circle.open {
      fill:none;
      stroke: black;
      stroke-width: 2;
      stroke-opacity: 1;
      fill-opacity: 1;
      stroke-linecap: round;
      stroke-linejoin: miter;
    }
    tspan.head{
        fill: none;
        stroke: none;
    }
    
</style>
<rect fill="white" height="400" width="680" x="0" y="0"/>
<g>
<line x1="36" x2="36" y1="284" y2="340"/>
<path d="M 36 340 A 4 4 0 0 0 40 344" fill="none"/>
<path d="M 40 280 A 4 4 0 0 0 36 284" fill="none"/>
</g>
<g>
<line x1="40" x2="144" y1="280" y2="280"/>
<path d="M 148 284 A 4 4 0 0 0 144 280" fill="none"/>
</g>
<g>
<line x1="40" x2="144" y1="344" y2="344"/>
<path d="M 144 344 A 4 4 0 0 0 148 340" fill="none"/>
</g>
<g>
<line x1="90" x2="90" y1="368" y2="396"/>
<line x1="90" x2="622" y1="396" y2="396"/>
<line x1="622" x2="622" y1="352" y2="396"/>
<line x1="622" x2="622" y1="396" y2="368"/>
</g>
<g>
<line marker-end="url(#triangle)" x1="92" x2="92" y1="140" y2="268"/>
<path d="M 96 136 A 4 4 0 0 0 92 140" fill="none"/>
</g>
<g>
<line x1="94" x2="94" y1="368" y2="392"/>
<line x1="94" x2="618" y1="392" y2="392"/>
<line x1="618" x2="618" y1="352" y2="392"/>
<line x1="618" x2="618" y1="392" y2="368"/>
</g>
<g>
<line x1="96" x2="132" y1="136" y2="136"/>
<line x1="132" x2="132" y1="108" y2="136"/>
<line x1="132" x2="132" y1="136" y2="164"/>
<path d="M 132 164 A 4 4 0 0 0 136 168" fill="none"/>
<path d="M 136 104 A 4 4 0 0 0 132 108" fill="none"/>
</g>
<g>
<line x1="136" x2="240" y1="104" y2="104"/>
<path d="M 244 108 A 4 4 0 0 0 240 104" fill="none"/>
</g>
<g>
<line x1="136" x2="188" y1="168" y2="168"/>
<line x1="188" x2="188" y1="168" y2="196"/>
<line x1="188" x2="240" y1="168" y2="168"/>
<path d="M 188 196 A 4 4 0 0 0 192 200" fill="none"/>
<path d="M 240 168 A 4 4 0 0 0 244 164" fill="none"/>
</g>
<g>
<line x1="148" x2="148" y1="284" y2="312"/>
<line x1="148" x2="148" y1="312" y2="340"/>
<line marker-end="url(#triangle)" x1="148" x2="204" y1="312" y2="312"/>
</g>
<g>
<line marker-end="url(#triangle)" x1="188" x2="188" y1="44" y2="92"/>
<path d="M 192 40 A 4 4 0 0 0 188 44" fill="none"/>
</g>
<g>
<line x1="192" x2="300" y1="40" y2="40"/>
<line x1="300" x2="300" y1="12" y2="40"/>
<line x1="300" x2="300" y1="40" y2="68"/>
<path d="M 300 68 A 4 4 0 0 0 304 72" fill="none"/>
<path d="M 304 8 A 4 4 0 0 0 300 12" fill="none"/>
</g>
<g>
<line x1="192" x2="432" y1="200" y2="200"/>
<path d="M 436 204 A 4 4 0 0 0 432 200" fill="none"/>
</g>
<g>
<line x1="212" x2="212" y1="284" y2="340"/>
<path d="M 212 340 A 4 4 0 0 0 216 344" fill="none"/>
<path d="M 216 280 A 4 4 0 0 0 212 284" fill="none"/>
</g>
<g>
<line x1="216" x2="320" y1="280" y2="280"/>
<path d="M 324 284 A 4 4 0 0 0 320 280" fill="none"/>
</g>
<g>
<line x1="216" x2="320" y1="344" y2="344"/>
<path d="M 320 344 A 4 4 0 0 0 324 340" fill="none"/>
</g>
<g>
<line x1="244" x2="244" y1="108" y2="120"/>
<line x1="244" x2="244" y1="120" y2="164"/>
<line marker-end="url(#triangle)" x1="244" x2="468" y1="120" y2="120"/>
</g>
<g>
<line marker-end="url(#triangle)" x1="256" x2="252" y1="152" y2="152"/>
<line x1="256" x2="476" y1="152" y2="152"/>
<line x1="476" x2="476" y1="108" y2="152"/>
<line x1="476" x2="476" y1="152" y2="164"/>
<path d="M 476 164 A 4 4 0 0 0 480 168" fill="none"/>
<path d="M 480 104 A 4 4 0 0 0 476 108" fill="none"/>
</g>
<g>
<line x1="256" x2="472" y1="156" y2="156"/>
</g>
<g>
<line x1="266" x2="266" y1="232" y2="256"/>
<line x1="266" x2="530" y1="232" y2="232"/>
<line x1="266" x2="266" y1="256" y2="240"/>
<line x1="530" x2="530" y1="176" y2="232"/>
<line x1="530" x2="530" y1="192" y2="232"/>
<line x1="530" x2="530" y1="232" y2="208"/>
</g>
<g>
<line x1="270" x2="270" y1="236" y2="256"/>
<line x1="270" x2="534" y1="236" y2="236"/>
<line x1="270" x2="270" y1="256" y2="240"/>
<line x1="534" x2="534" y1="176" y2="236"/>
<line x1="534" x2="534" y1="192" y2="236"/>
<line x1="534" x2="534" y1="236" y2="208"/>
</g>
<g>
<line x1="304" x2="408" y1="8" y2="8"/>
<path d="M 412 12 A 4 4 0 0 0 408 8" fill="none"/>
</g>
<g>
<line x1="304" x2="408" y1="72" y2="72"/>
<path d="M 408 72 A 4 4 0 0 0 412 68" fill="none"/>
</g>
<g>
<line x1="324" x2="324" y1="284" y2="312"/>
<line x1="324" x2="324" y1="312" y2="340"/>
<line marker-end="url(#triangle)" x1="324" x2="380" y1="312" y2="312"/>
</g>
<g>
<line x1="328" x2="376" y1="316" y2="316"/>
</g>
<g>
<line x1="388" x2="388" y1="284" y2="340"/>
<path d="M 388 340 A 4 4 0 0 0 392 344" fill="none"/>
<path d="M 392 280 A 4 4 0 0 0 388 284" fill="none"/>
</g>
<g>
<line x1="392" x2="496" y1="280" y2="280"/>
<path d="M 500 284 A 4 4 0 0 0 496 280" fill="none"/>
</g>
<g>
<line x1="392" x2="496" y1="344" y2="344"/>
<path d="M 496 344 A 4 4 0 0 0 500 340" fill="none"/>
</g>
<g>
<line x1="412" x2="412" y1="12" y2="40"/>
<line x1="412" x2="412" y1="40" y2="68"/>
<line x1="412" x2="534" y1="40" y2="40"/>
<line x1="534" x2="534" y1="40" y2="80"/>
<line x1="534" x2="534" y1="48" y2="80"/>
<line x1="534" x2="534" y1="80" y2="64"/>
</g>
<g>
<line x1="416" x2="530" y1="44" y2="44"/>
<line x1="530" x2="530" y1="44" y2="80"/>
<line x1="530" x2="530" y1="48" y2="80"/>
<line x1="530" x2="530" y1="80" y2="64"/>
</g>
<g>
<line x1="436" x2="436" y1="204" y2="224"/>
</g>
<g>
<line marker-end="url(#triangle)" x1="436" x2="436" y1="240" y2="268"/>
</g>
<g>
<line x1="480" x2="584" y1="104" y2="104"/>
<path d="M 588 108 A 4 4 0 0 0 584 104" fill="none"/>
</g>
<g>
<line x1="480" x2="532" y1="168" y2="168"/>
<line x1="532" x2="584" y1="168" y2="168"/>
<path d="M 584 168 A 4 4 0 0 0 588 164" fill="none"/>
</g>
<g>
<line x1="500" x2="500" y1="284" y2="312"/>
<line x1="500" x2="500" y1="312" y2="340"/>
<line marker-end="url(#triangle)" x1="500" x2="556" y1="312" y2="312"/>
</g>
<g>
<line x1="564" x2="564" y1="284" y2="340"/>
<path d="M 564 340 A 4 4 0 0 0 568 344" fill="none"/>
<path d="M 568 280 A 4 4 0 0 0 564 284" fill="none"/>
</g>
<g>
<line x1="568" x2="672" y1="280" y2="280"/>
<path d="M 676 284 A 4 4 0 0 0 672 280" fill="none"/>
</g>
<g>
<line x1="568" x2="620" y1="344" y2="344"/>
<line x1="620" x2="672" y1="344" y2="344"/>
<path d="M 672 344 A 4 4 0 0 0 676 340" fill="none"/>
</g>
<g>
<line x1="588" x2="588" y1="108" y2="136"/>
<line x1="588" x2="588" y1="136" y2="164"/>
<line x1="588" x2="622" y1="136" y2="136"/>
<line x1="622" x2="622" y1="136" y2="256"/>
<line x1="622" x2="622" y1="144" y2="256"/>
<line x1="622" x2="622" y1="160" y2="256"/>
<line x1="622" x2="622" y1="176" y2="256"/>
<line x1="622" x2="622" y1="192" y2="256"/>
<line x1="622" x2="622" y1="208" y2="256"/>
<line x1="622" x2="622" y1="224" y2="256"/>
<line x1="622" x2="622" y1="256" y2="240"/>
</g>
<g>
<line x1="592" x2="618" y1="140" y2="140"/>
<line x1="618" x2="618" y1="140" y2="256"/>
<line x1="618" x2="618" y1="144" y2="256"/>
<line x1="618" x2="618" y1="160" y2="256"/>
<line x1="618" x2="618" y1="176" y2="256"/>
<line x1="618" x2="618" y1="192" y2="256"/>
<line x1="618" x2="618" y1="208" y2="256"/>
<line x1="618" x2="618" y1="224" y2="256"/>
<line x1="618" x2="618" y1="256" y2="240"/>
</g>
<g>
<line x1="676" x2="676" y1="284" y2="340"/>
</g>
<g>
<text x="49" y="316">
Validator
</text>
</g>
<g>
<text x="89" y="364">
^
</text>
</g>
<g>
<text x="129" y="316">
3
</text>
</g>
<g>
<text x="145" y="140">
Validator
</text>
</g>
<g>
<text x="225" y="140">
1
</text>
</g>
<g>
<text x="225" y="316">
Validator
</text>
</g>
<g>
<text x="265" y="268">
v
</text>
</g>
<g>
<text x="305" y="316">
4
</text>
</g>
<g>
<text x="329" y="44">
Leader
</text>
</g>
<g>
<text x="401" y="316">
Validator
</text>
</g>
<g>
<text x="481" y="316">
5
</text>
</g>
<g>
<text x="489" y="140">
Validator
</text>
</g>
<g>
<text x="529" y="92">
v
</text>
</g>
<g>
<text x="569" y="140">
2
</text>
</g>
<g>
<text x="577" y="316">
Validator
</text>
</g>
<g>
<text x="617" y="268">
v
</text>
</g>
<g>
<text x="657" y="316">
6
</text>
</g>
</svg>
